<?xml version="1.0" encoding="UTF-8"?>
<svg id="Layer_1" data-name="Layer 1" xmlns="http://www.w3.org/2000/svg" xmlns:xlink="http://www.w3.org/1999/xlink" viewBox="0 0 29.13 29.15">
  <defs>
    <style>
      .cls-1 {
        fill: none;
      }

      .cls-1, .cls-2 {
        stroke-width: 0px;
      }

      .cls-3 {
        clip-path: url(#clippath);
      }

      .cls-2 {
        fill: #070807;
      }
    </style>
    <clipPath id="clippath">
      <rect class="cls-1" width="29.13" height="29.15"/>
    </clipPath>
  </defs>
  <g class="cls-3">
    <g id="Group_97" data-name="Group 97">
      <path id="Path_114" data-name="Path 114" class="cls-2" d="M19.41,14.52l8.73-8.74c1.24-1.4,1.11-3.53-.29-4.77-1.28-1.13-3.2-1.13-4.47,0l-8.74,8.73L5.88.99c-1.34-1.3-3.48-1.26-4.78.08-1.26,1.31-1.26,3.38,0,4.69l8.76,8.76L1.13,23.26c-1.39,1.24-1.51,3.38-.27,4.77,1.24,1.39,3.38,1.51,4.77.27.09-.08.18-.17.27-.27l8.74-8.73,8.73,8.73c1.33,1.31,3.47,1.29,4.78-.05,1.29-1.31,1.29-3.42,0-4.73l-8.73-8.73Z"/>
    </g>
  </g>
</svg>