<?xml version="1.0" encoding="UTF-8"?>
<svg id="Layer_1" data-name="Layer 1" xmlns="http://www.w3.org/2000/svg" version="1.1" viewBox="0 0 800 800">
  <defs>
    <style>
      .cls-1 {
        fill: #c0338d;
        fill-rule: evenodd;
        stroke-width: 0px;
      }
    </style>
  </defs>
  <path class="cls-1" d="M133.3,400c0-147.3,119.4-266.7,266.7-266.7s266.7,119.4,266.7,266.7-119.4,266.7-266.7,266.7-55.3-4.4-80.7-12.4c1.9-9.3,4.1-18,6.7-26.4,4.1,0,8.2-.4,12.4-1.2l52.5-10c154-29.3,235.8-199.2,162.8-337.9l-27.9-52.9c-15-28.6-48.4-42.3-79.2-32.5l-48.6,15.4c-114.3,36.3-182.5,153.3-157.7,270.7l20.2,95.5c1.4,6.5,3.6,12.5,6.6,18.1-3.7,10.3-7,21-9.8,32.4-74.6-47.3-124.1-130.6-124.1-225.4ZM400,66.7c-184.1,0-333.3,149.2-333.3,333.3s149.2,333.3,333.3,333.3,333.3-149.2,333.3-333.3S584.1,66.7,400,66.7ZM365.4,546.5c-1.7,2.7-3.5,5.4-5.2,8.1l18.1-3.4c110-21,168.5-142.3,116.3-241.3l-27.8-52.9-48.6,15.4c-81.6,25.9-130.3,109.5-112.6,193.3l8.1,38.2c8.4-12.5,17.2-24.8,25.7-36.8h0c3.5-4.9,7-9.8,10.4-14.6,13.3-18.8,26-37.7,37.7-58.7,8.9-16.1,29.2-21.9,45.3-13,16.1,8.9,21.9,29.2,13,45.3-13.4,24.1-27.7,45.3-41.5,64.8-3.9,5.5-7.6,10.8-11.3,15.9-9.7,13.6-18.8,26.3-27.5,39.7Z"/>
</svg>