<?xml version="1.0" encoding="UTF-8"?>
<svg id="Layer_1" data-name="Layer 1" xmlns="http://www.w3.org/2000/svg" xmlns:xlink="http://www.w3.org/1999/xlink" viewBox="0 0 133.56 156.24">
  <defs>
    <style>
      .cls-1 {
        fill: none;
      }

      .cls-1, .cls-2 {
        stroke-width: 0px;
      }

      .cls-2 {
        fill: #ab217c;
      }

      .cls-3 {
        clip-path: url(#clippath);
      }
    </style>
    <clipPath id="clippath">
      <rect class="cls-1" width="133.56" height="156.24"/>
    </clipPath>
  </defs>
  <g class="cls-3">
    <g id="quatro-4">
      <path id="Path_59" data-name="Path 59" class="cls-2" d="M130.53,144.88l-86.2-49.77c-1.73-1.01-2.4-3.17-1.55-4.99,2.74-5.98,5.65-15.51,7.71-29.42.61-4.11,6.72-33.94,10.83-50.94.34-.97.57-1.98.68-3,.16-.86.05-1.74-.3-2.53-.65-2.02-2.3-3.55-4.36-4.05h0c-3.27-.79-6.03,1.13-7.77,4.17L1.02,76.78c-1.44,2.12-1.35,4.93.23,6.95.08.11.16.21.25.32s.16.18.25.27c.4.46.88.85,1.4,1.16l22.61,13.06c.8.46,1.2,1.39.98,2.29l-9.67,40.06c-.77,3.25,1.21,6.52,4.44,7.36h0c3.28.83,6.61-1.15,7.44-4.43,0-.02.01-.04.02-.06l8.63-35.76c.23-.95,1.19-1.54,2.14-1.31.16.04.32.1.47.19l84.1,48.56c2.93,1.68,6.67.69,8.4-2.21h0c1.7-2.89.73-6.61-2.15-8.31-.01,0-.02-.01-.04-.02M14.84,76.71c-3.82-2.79,6.52-11.73,8.07-14.91l22.32-37.34c.61-1.02,1.92-1.35,2.94-.74.81.49,1.21,1.45.98,2.37l-7.5,34.7c-.26,1.19-2.17,11.09-2.29,12.3-.54,5.36-5,18.98-11.58,13.5l-12.94-9.87Z"/>
    </g>
  </g>
</svg>