<?xml version="1.0" encoding="UTF-8"?>
<svg id="Layer_1" data-name="Layer 1" xmlns="http://www.w3.org/2000/svg" version="1.1" viewBox="0 0 1920 1932">
  <defs>
    <style>
      .cls-1 {
        fill: #f59623;
      }

      .cls-1, .cls-2, .cls-3 {
        stroke-width: 0px;
      }

      .cls-2 {
        fill: #ab1f7c;
      }

      .cls-3 {
        fill: #bcc632;
      }
    </style>
  </defs>
  <path id="Path_7" data-name="Path 7" class="cls-2" d="M407.2,208.4c36.4,160.5-110.1,303.5-246,303.5S-52,372.3-84.7,208.4C-118.6,38.9,25.4-95.1,161.2-95.1S370.3,45.4,407.2,208.4"/>
  <path id="Path_7-2" data-name="Path 7" class="cls-1" d="M2009.3,1056.8c-99,131.5-302.8,112.1-390.6,8.4-87.8-103.7-31.3-252.9,72.7-383.8,107.4-135.4,302.8-112.1,390.6-8.4,87.8,103.7,27.8,250.3-72.7,383.8"/>
  <path id="Path_7-3" data-name="Path 7" class="cls-2" d="M1451.1,1886.2c-85.5,140.6-290.2,141.5-387.8,47-97.6-94.5-56.1-248.6,34.3-389.1,93.5-145.3,290.2-141.5,387.8-47,97.6,94.5,52.4,246.4-34.3,389.2"/>
  <path id="Path_7-4" data-name="Path 7" class="cls-3" d="M438,1204.6c-73.2,147.4-277.1,165.6-382.4,79.8-105.3-85.8-77.1-242.9,1.1-390.7,80.8-152.7,277.1-165.7,382.4-79.8,105.3,85.8,73.2,241-1.1,390.7"/>
  <path id="Path_7-5" data-name="Path 7" class="cls-3" d="M1468.5,269.6c-86.8,139.9-291.5,138.8-388.2,43.5-96.8-95.4-53.9-249.1,37.9-388.8,94.8-144.5,291.5-138.9,388.2-43.5,96.7,95.3,50.2,246.8-37.9,388.8"/>
  <path id="Path_7-6" data-name="Path 7" class="cls-1" d="M642.5,1906.4c-25.6,162.6-214.6,241.2-340.8,191-126.2-50.3-146.5-208.5-116.3-373,31.2-170,214.6-241.2,340.8-191,126.2,50.2,142.2,207.9,116.3,373"/>
  <path id="Path_7-7" data-name="Path 7" class="cls-1" d="M1300.6,916.8c46.6,157.8-90.5,309.9-226,318.6-135.6,8.7-221.7-125.6-264.9-287.1-44.7-166.9,90.4-309.9,226-318.6,135.6-8.7,217.6,126.9,264.9,287.1"/>
</svg>