<?xml version="1.0" encoding="UTF-8"?>
<svg id="Layer_1" data-name="Layer 1" xmlns="http://www.w3.org/2000/svg" xmlns:xlink="http://www.w3.org/1999/xlink" viewBox="0 0 399.53 166.18">
  <defs>
    <style>
      .cls-1 {
        fill: #1a1818;
      }

      .cls-1, .cls-2, .cls-3, .cls-4, .cls-5, .cls-6 {
        stroke-width: 0px;
      }

      .cls-2 {
        fill: #b8ba33;
      }

      .cls-3 {
        fill: none;
      }

      .cls-4 {
        fill: #f58120;
      }

      .cls-5 {
        fill: #ab217c;
      }

      .cls-7 {
        clip-path: url(#clippath);
      }

      .cls-6 {
        fill: #c42839;
      }
    </style>
    <clipPath id="clippath">
      <rect class="cls-3" width="399.53" height="166.18"/>
    </clipPath>
  </defs>
  <g class="cls-7">
    <g id="Group_1" data-name="Group 1">
      <path id="Path_1" data-name="Path 1" class="cls-1" d="M165.64,13.57c2.05-18.22,14.07-12.9,16.93.77,4.2,20.1,7.26,38.35,24.73,144.66-.2,4.37-6.47,7.47-9.85.95l-5.73-36.09-27.71,2.73c-2.05,9.26-4.28,26.88-5.07,35.21-.62,4.75-9.34,3.16-8.97-.41l15.68-147.81ZM165.33,106.33c-.27,1.38-.82,9.12-.89,10.71l25.66-2.42-15.99-89.32c-1.36,12.08-7.6,68.74-8.77,81.03"/>
      <path id="Path_2" data-name="Path 2" class="cls-1" d="M275.5,75.58c0-5.83-.94-40.05-1.32-48.88,0-1.88-1.13-18.43-1.32-20.49v-.75c0-4.32,4.89-5.45,8.65-5.45,25.94,0,35.16,18.61,35.16,40.23,0,17.3-6.58,27.83-18.61,36.47,12.1,15.76,24.5,28.97,31.68,47.99,1.2,3.17-2.07,4.7-5.45,4.7-2.26,0-2.93-.09-4.13-3.01-5.56-13.49-20.5-29.34-31.12-40.66-.13-.14-1.5.19-1.88.19-2.07,21.25.36,52.83-.95,74.27-2.44,3.38-7.99,3.03-10.24-.54.19-11.28-.27-72.79-.46-84.07M285.85,71.07c13.35-2.63,20.68-17.3,20.68-29.14,0-9.96-4.13-30.65-17.67-30.65-.75,0-6.58,0-6.58,1.5l3.57,58.28Z"/>
      <path id="Path_3" data-name="Path 3" class="cls-6" d="M305.72,123.02c.84,3.47-2.53,6.57-5.66,6.57s-4.91-3.02-5.66-6.57c-.78-3.67,2.53-6.57,5.66-6.57s4.81,3.04,5.66,6.57"/>
      <path id="Path_4" data-name="Path 4" class="cls-1" d="M27.58,1.94c36.81,0,41.79,159.7,5.3,163.97-.66,0-1.33.22-1.99.22-13.93,0-21.56-11.23-25.54-31.89C3.21,120.76-14.04,1.94,27.58,1.94M13.32,123.9c1.33,7.41,6.8,28.75,15.09,29.87.83.22,1.49,0,1.99,0,11.11-1.35,14.76-27.63,16.25-38.18,2.65-17.97,4.81-101.3-18.74-101.3h-1.33C1.55,17.44,10.17,107.5,13.32,123.9"/>
      <path id="Path_5" data-name="Path 5" class="cls-5" d="M82.74,137.81l-46.8-27.02c-.94-.55-1.3-1.72-.84-2.71,1.49-3.25,3.07-8.42,4.19-15.97.33-2.23,3.65-18.42,5.88-27.65.19-.53.31-1.07.37-1.63.08-.46.03-.94-.16-1.38-.35-1.09-1.25-1.93-2.36-2.2h0c-1.78-.43-3.28.62-4.22,2.27l-26.35,39.32c-.78,1.15-.73,2.68.12,3.77.04.06.09.11.14.17.04.05.09.1.14.15.22.25.48.46.76.63l12.27,7.09c.43.25.65.76.53,1.24l-5.25,21.75c-.42,1.77.65,3.54,2.41,4h0c1.78.45,3.58-.62,4.04-2.4,0-.01,0-.03,0-.04l4.69-19.41c.12-.52.64-.83,1.16-.71.09.02.18.06.25.1l45.66,26.36c1.59.91,3.62.38,4.56-1.2h0c.92-1.57.4-3.59-1.17-4.51,0,0-.01,0-.02-.01M19.93,100.81c-2.07-1.52,3.54-6.37,4.38-8.1l12.12-20.27c.33-.55,1.04-.73,1.6-.4.44.26.66.79.53,1.28l-4.07,18.84c-.14.64-1.18,6.02-1.24,6.68-.29,2.91-2.72,10.3-6.29,7.33l-7.02-5.36Z"/>
      <path id="Path_6" data-name="Path 6" class="cls-1" d="M369.25,1.99c36.81,0,41.79,159.7,5.31,163.97-.66,0-1.33.22-1.99.22-13.93,0-21.56-11.23-25.54-31.89-2.16-13.48-19.4-132.3,22.22-132.3M354.99,123.95c1.33,7.41,6.8,28.75,15.09,29.87.83.22,1.49,0,1.99,0,11.11-1.35,14.76-27.63,16.25-38.18,2.65-17.97,4.81-101.3-18.74-101.3h-1.33c-25.04,3.14-16.42,93.21-13.27,109.61"/>
      <path id="Path_7" data-name="Path 7" class="cls-5" d="M375.53,103.73c.78,3.47-2.37,6.57-5.3,6.57s-4.6-3.02-5.3-6.57c-.73-3.67,2.37-6.57,5.3-6.57s4.51,3.04,5.3,6.57"/>
      <path id="Path_8" data-name="Path 8" class="cls-1" d="M231.18,79.01c-.56-11.43.17-42-3.42-41.89l-14.51.28c-.36.01-.71-.02-1.06-.09-5.56-1.18-7.67-5.32.54-7.52.36-.09.73-.15,1.11-.16,14.47-.43,28.55-1.4,43.61-1.26,8.48.18,8.28,7.63,2.83,7.9l-17.09.59c-2.44.08-4.37,1.91-4.31,4.1.29,11.61,1.45,45.87,1.79,62.39.13,6.36.29,13.06.34,21.17.01,1.73-.16,3.46-.51,5.16l-.06.28c-1.19,4.18-6.32,3.71-8.3.4-.29-.5-.44-1.07-.45-1.65-.29-11.13,0-39.25-.52-49.69"/>
      <path id="Path_9" data-name="Path 9" class="cls-4" d="M241.36,14.24c.84,3.47-2.53,6.57-5.66,6.57s-4.91-3.02-5.66-6.57c-.78-3.67,2.53-6.57,5.66-6.57s4.81,3.04,5.66,6.57"/>
      <path id="Path_10" data-name="Path 10" class="cls-1" d="M79.15,17.4c1.02-1.01,2.76-2.08,4.39-2.19,6.51-.46,6.56,5.51,6.67,9.59l.07.94c.73,15.67-.36,31.15.37,46.82.38,10.66-2.41,53.93,16.94,52.58,8.86-.62,14.9-15.8,15.83-20.74,4.78-27.84,5.79-57.17,3.87-84.71l-.24-3.44c-.16-2.35,3.4-3.38,5.75-3.55,3.07-.22,5.77,1.95,5.93,4.3l-.02,2.36c-.12,24.22-.74,46.58-3.95,70.86l-.22,2.06c-.16.33-.11.95-.43,1.6-1.38,11.41-4.82,37.59-24.89,39-22.96,1.61-26.26-19.54-27.21-33.15l-.2-2.82c-.07-.94-1.3-21.13-1.64-28.65-.64-16.93-1.82-33.83-1.01-50.86"/>
      <path id="Path_11" data-name="Path 11" class="cls-2" d="M114.45,52.54c.84,3.47-2.53,6.57-5.66,6.57s-4.91-3.02-5.66-6.57c-.78-3.67,2.53-6.57,5.66-6.57s4.81,3.04,5.66,6.57"/>
    </g>
  </g>
</svg>