<?xml version="1.0" encoding="UTF-8"?>
<svg id="Layer_1" data-name="Layer 1" xmlns="http://www.w3.org/2000/svg" xmlns:xlink="http://www.w3.org/1999/xlink" viewBox="0 0 824.12 451.89">
  <defs>
    <style>
      .cls-1 {
        fill: none;
      }

      .cls-1, .cls-2, .cls-3, .cls-4, .cls-5, .cls-6 {
        stroke-width: 0px;
      }

      .cls-2 {
        fill: #f58120;
      }

      .cls-3 {
        fill: #1a1818;
      }

      .cls-4 {
        fill: #b8ba33;
      }

      .cls-7 {
        clip-path: url(#clippath);
      }

      .cls-5 {
        fill: #ab217c;
      }

      .cls-6 {
        fill: #c42839;
      }
    </style>
    <clipPath id="clippath">
      <rect class="cls-1" x="-6.91" y="-3.96" width="837.32" height="459.81"/>
    </clipPath>
  </defs>
  <g class="cls-7">
    <g id="Group_12" data-name="Group 12">
      <path id="Path_44" data-name="Path 44" class="cls-3" d="M358.65,116.04c3.25-28.9,22.32-20.46,26.85,1.21,6.66,31.88,11.51,60.83,39.22,229.43-.32,6.93-10.26,11.85-15.63,1.5l-9.08-57.24-43.95,4.33c-3.26,14.69-6.79,42.64-8.04,55.84-.99,7.54-14.81,5.01-14.23-.64l24.86-234.42ZM358.16,263.15c-.42,2.19-1.3,14.46-1.42,16.99l40.69-3.84-25.36-141.65c-2.16,19.16-12.06,109.02-13.91,128.51"/>
      <path id="Path_45" data-name="Path 45" class="cls-3" d="M532.89,214.38c0-9.24-1.49-63.51-2.09-77.53,0-2.98-1.79-29.22-2.09-32.5v-1.19c0-6.86,7.75-8.65,13.72-8.65,41.15,0,55.76,29.52,55.76,63.81,0,27.43-10.44,44.13-29.52,57.85,19.19,25,38.86,45.94,50.24,76.12,1.9,5.02-3.28,7.45-8.65,7.45-3.58,0-4.65-.15-6.56-4.77-8.82-21.4-32.52-46.54-49.35-64.49-.2-.22-2.39.3-2.98.3-3.28,33.69.58,83.79-1.51,117.78-3.88,5.37-12.66,4.81-16.24-.85.3-17.89-.43-115.44-.73-133.33M549.29,207.23c21.17-4.18,32.8-27.43,32.8-46.22,0-15.8-6.56-48.6-28.03-48.6-1.19,0-10.44,0-10.44,2.39l5.67,92.43Z"/>
      <path id="Path_46" data-name="Path 46" class="cls-6" d="M580.81,289.63c1.33,5.51-4.02,10.42-8.98,10.42s-7.78-4.79-8.98-10.42c-1.24-5.82,4.02-10.42,8.98-10.42s7.63,4.82,8.98,10.42"/>
      <path id="Path_47" data-name="Path 47" class="cls-3" d="M139.69,97.58c58.39,0,66.28,253.28,8.42,260.05-1.05,0-2.1.36-3.16.36-22.09,0-34.19-17.81-40.5-50.58-3.42-21.37-30.77-209.82,35.24-209.82M117.07,291.02c2.1,11.76,10.78,45.6,23.93,47.38,1.04.18,2.11.18,3.16,0,17.62-2.14,23.41-43.82,25.78-60.56,4.21-28.5,7.63-160.66-29.72-160.66h-2.1c-39.72,4.99-26.04,147.83-21.04,173.84"/>
      <path id="Path_48" data-name="Path 48" class="cls-5" d="M227.17,313.08l-74.22-42.85c-1.49-.87-2.07-2.73-1.33-4.29,2.36-5.15,4.86-13.35,6.64-25.33.53-3.54,5.79-29.22,9.32-43.86.29-.84.49-1.7.58-2.59.13-.74.04-1.5-.26-2.18-.56-1.73-1.98-3.05-3.75-3.49h0c-2.82-.68-5.2.98-6.69,3.6l-41.79,62.36c-1.24,1.83-1.16,4.24.2,5.98.07.1.14.18.21.27s.14.16.21.23c.35.39.76.73,1.21,1l19.47,11.24c.69.4,1.03,1.2.85,1.97l-8.33,34.49c-.66,2.8,1.04,5.62,3.82,6.34h0c2.82.71,5.69-.99,6.4-3.81,0-.02,0-.04.01-.06l7.43-30.79c.2-.82,1.02-1.32,1.84-1.12.14.03.28.09.4.16l72.41,41.8c2.53,1.44,5.74.6,7.24-1.9h0c1.46-2.49.63-5.69-1.86-7.15,0,0-.02-.01-.03-.02M127.56,254.4c-3.29-2.4,5.61-10.1,6.95-12.84l19.22-32.15c.52-.87,1.66-1.16,2.53-.64.7.42,1.04,1.25.84,2.04l-6.45,29.88c-.22,1.02-1.87,9.55-1.97,10.59-.46,4.62-4.31,16.34-9.97,11.62l-11.14-8.5Z"/>
      <path id="Path_49" data-name="Path 49" class="cls-3" d="M681.58,97.66c58.39,0,66.28,253.28,8.41,260.05-1.05,0-2.1.36-3.16.36-22.09,0-34.19-17.81-40.5-50.58-3.42-21.37-30.77-209.82,35.24-209.82M658.96,291.1c2.1,11.76,10.78,45.6,23.93,47.38,1.04.18,2.11.18,3.16,0,17.62-2.14,23.41-43.82,25.77-60.56,4.21-28.5,7.63-160.66-29.72-160.66h-2.1c-39.71,4.99-26.04,147.84-21.04,173.84"/>
      <path id="Path_50" data-name="Path 50" class="cls-5" d="M691.53,259.04c1.24,5.51-3.77,10.42-8.41,10.42s-7.29-4.79-8.41-10.42c-.88-4.8,2.3-9.4,7.1-10.28.43-.08.87-.13,1.31-.14,4.65,0,7.15,4.82,8.41,10.42"/>
      <path id="Path_51" data-name="Path 51" class="cls-3" d="M462.6,219.82c-.89-18.13.27-66.61-5.43-66.44l-23.01.45c-.57.02-1.13-.03-1.69-.14-8.82-1.87-12.16-8.43.86-11.93.57-.15,1.16-.23,1.76-.25,22.94-.68,45.29-2.22,69.17-1.99,13.45.29,13.13,12.1,4.49,12.52l-27.1.93c-3.87.13-6.93,3.03-6.84,6.5.46,18.41,2.29,72.74,2.84,98.94.21,10.09.45,20.71.54,33.58.02,2.75-.25,5.49-.8,8.18l-.09.45c-1.88,6.62-10.02,5.88-13.16.63-.46-.8-.7-1.7-.71-2.62-.47-17.65-.01-62.26-.83-78.81"/>
      <path id="Path_52" data-name="Path 52" class="cls-2" d="M478.74,117.1c1.33,5.51-4.02,10.42-8.98,10.42s-7.78-4.79-8.98-10.42c-1.24-5.82,4.02-10.42,8.98-10.42s7.63,4.82,8.98,10.42"/>
      <path id="Path_53" data-name="Path 53" class="cls-3" d="M221.48,122.1c1.87-1.89,4.32-3.12,6.96-3.48,10.32-.72,10.41,8.75,10.57,15.22l.1,1.49c1.16,24.85-.58,49.4.58,74.25.61,16.91-3.81,85.53,26.87,83.39,14.05-.98,23.63-25.05,25.1-32.89,7.57-44.16,9.19-90.68,6.13-134.34l-.38-5.46c-.26-3.72,5.39-5.36,9.11-5.62,4.88-.34,9.15,3.1,9.41,6.82l-.03,3.74c-.19,38.41-1.17,73.88-6.26,112.38l-.35,3.27c-.17.86-.4,1.71-.69,2.54-2.19,18.1-7.64,59.62-39.47,61.85-36.41,2.55-41.64-31-43.15-52.58l-.31-4.47c-.1-1.49-2.05-33.51-2.6-45.44-1.01-26.86-2.89-53.65-1.61-80.67"/>
      <path id="Path_54" data-name="Path 54" class="cls-4" d="M277.46,177.85c1.33,5.51-4.02,10.42-8.98,10.42s-7.78-4.79-8.98-10.42c-1.24-5.82,4.02-10.42,8.98-10.42s7.63,4.82,8.98,10.42"/>
    </g>
  </g>
</svg>