<?xml version="1.0" encoding="UTF-8"?>
<svg id="Layer_1" data-name="Layer 1" xmlns="http://www.w3.org/2000/svg" version="1.1" viewBox="0 0 800 800">
  <defs>
    <style>
      .cls-1 {
        fill: #BCC632;
        stroke-width: 0px;
      }
    </style>
  </defs>
  <path class="cls-1" d="M369.2,542.2l-6.8,165.7-.9,9.9-189.1-13.1c-11.8-1.2-22.3-6.4-30.2-14.2-8.9-8.1-16-17.9-20.9-29l-.2-.5c-3-7.2-5.3-15.6-6.5-24.3v-.5c-.4-2.7-.5-5.9-.5-9.1,0-7.1.8-14.1,2.4-20.8v.6c2.1-11.1,3.9-19.4,5.2-24.8,3.3-11.8,6.6-21.3,10.4-30.7l-.7,1.9c5.1-13.8,7.9-21.7,8.5-23.8,23.4,3.6,99.9,7.7,229.2,12.5h0ZM194.9,278.4l81.1,170.7-66.2-41.4c-17.2,19.4-33.6,40.6-48.8,62.8l-1.4,2.2c-11.3,16.1-22.1,34.6-31.6,53.8l-1.1,2.5c-7.2,15.9-13.1,30-17.8,42.6-3.3,8-6.2,17.5-8.2,27.4l-.2,1-1.8,9.4L13.6,448.6c-4.8-7.1-7.8-15.8-8.1-25.2h0c0-1.3-.2-2.8-.2-4.3,0-6.1,1-11.9,2.9-17.3v.4c0,0,3.5-8.1,3.5-8.1,10.6-18.9,27.7-47.1,51.3-84.5L0,270.8l194.8,7.6ZM749.2,511.2l-84.5,161.6c-3.5,8.6-9.2,15.7-16.3,20.9h-.1c-5.5,4.4-12.1,7.6-19.3,9.2h-.3c0,0-8.1,1.9-8.1,1.9-21.3,2.1-54.2,3.9-98.6,5.3l3.6,74-103.6-165.2,95.1-163,3.1,77.9c22.8,2.7,49.1,4.2,75.8,4.2s36.2-.7,54-2.1l-2.4.2c28-1.9,54.1-7.2,78.8-15.5l-2.2.6,25-9.9ZM395.8,95.1c-14.1,18.9-53.9,84.2-119.3,195.9l-142.6-84.2-8.5-5.3L226.6,41.2c6.4-9.5,15.7-16.7,26.6-20.2h.4c8.4-3.2,18-5,28-5s5.6.1,8.4.4h-.4c8,.7,15.5,2.6,22.3,5.4l-.5-.2c7.3,2.9,13.4,6.1,19.2,9.8l-.5-.3c7,4.7,13.1,9.6,18.7,14.9h0c7.2,6.5,12.6,11.7,16.2,15.5,3.6,3.7,9,9.7,16.2,17.8,7.3,8.1,12.1,13.4,14.5,15.8h0ZM690.7,233.3l95.5,163.5c3.9,7.6,6.2,16.6,6.2,26.1s-.2,5.7-.6,8.5v-.3c-1.8,12.5-6.2,23.8-12.5,33.7l.2-.3c-4.3,6.4-9.2,11.9-14.8,16.6h-.1c-5.1,4.5-10.7,8.6-16.5,12.4l-.6.3c-6.2,3.7-13.4,7-21,9.6l-.9.3c-9.2,3.3-16.2,5.7-21.1,7.2s-12.7,3.6-23.2,6.3l-20.7,5.3c-10.2-21.6-50-87.1-119.3-196.3l140.9-87.8,8.6-4.9ZM626.3,131.6l63.9-37.4-99,168-188.7-9,68-38.7c-11.4-29.9-22.7-54.5-35.5-78.2l1.7,3.5c-11.1-21.5-22.4-39.6-34.9-56.9l.9,1.3c-10.3-14-20-26-29.1-36-6.5-7.6-13.4-14.5-20.9-20.7l-.3-.2-7.6-5.9,182.2.4c1.5-.2,3.2-.3,5-.3,7.7,0,15,1.9,21.4,5.1h-.3c6.9,3,12.8,7.4,17.6,12.7h0c0,0,5,6.8,5,6.8,11.7,18.2,28.5,46.7,50.4,85.4h0Z"/>
</svg>