<?xml version="1.0" encoding="UTF-8"?>
<svg id="Layer_1" data-name="Layer 1" xmlns="http://www.w3.org/2000/svg" xmlns:xlink="http://www.w3.org/1999/xlink" viewBox="0 0 55.25 66.7">
  <defs>
    <style>
      .cls-1 {
        fill: #fdf7ef;
        stroke: #fdf7ef;
      }

      .cls-2 {
        fill: #f59623;
      }

      .cls-2, .cls-3 {
        stroke-width: 0px;
      }

      .cls-3 {
        fill: none;
      }

      .cls-4 {
        clip-path: url(#clippath);
      }
    </style>
    <clipPath id="clippath">
      <rect class="cls-3" x="14.28" y="23.9" width="28.4" height="20.5"/>
    </clipPath>
  </defs>
  <g id="quatro_dot" data-name="quatro dot">
    <path id="Path_7" data-name="Path 7" class="cls-2" d="M54.63,33.35c4,17.64-12.11,33.35-27.04,33.35S4.15,51.37.55,33.35C-3.17,14.73,12.65,0,27.59,0s22.98,15.44,27.04,33.35"/>
  </g>
  <g id="Group_42" data-name="Group 42">
    <g class="cls-4">
      <g id="Group_41" data-name="Group 41">
        <path id="Path_73" data-name="Path 73" class="cls-1" d="M23.45,44.4c-.81,0-1.58-.32-2.15-.89l-6.5-6.5c-.68-.72-.65-1.85.07-2.53.69-.66,1.77-.66,2.47,0l6.12,6.12,16.18-16.18c.68-.72,1.81-.75,2.53-.07.72.68.75,1.81.07,2.53-.02.02-.04.04-.07.07l-16.56,16.56c-.57.57-1.34.89-2.15.89"/>
      </g>
    </g>
  </g>
</svg>