<?xml version="1.0" encoding="UTF-8"?>
<svg id="LOGOS" xmlns="http://www.w3.org/2000/svg" viewBox="0 0 522.69 598.92">
  <defs>
    <style>
      .cls-1 {
        fill: #0a0000;
        stroke-width: 0px;
      }
    </style>
  </defs>
  <path class="cls-1" d="M444.28,120.05c-32.26-21.04-55.55-54.69-62.81-93.92-1.57-8.48-2.43-17.2-2.43-26.13h-102.97l-.17,412.66c-1.73,46.21-39.76,83.3-86.39,83.3-14.49,0-28.14-3.62-40.15-9.95-27.55-14.5-46.4-43.38-46.4-76.61,0-47.73,38.83-86.56,86.55-86.56,8.91,0,17.45,1.47,25.54,4v-105.12c-8.37-1.14-16.87-1.85-25.54-1.85C85.02,219.88,0,304.9,0,409.4c0,64.12,32.04,120.86,80.91,155.17,30.78,21.61,68.23,34.35,108.61,34.35,104.5,0,189.52-85.02,189.52-189.52v-209.25c40.38,28.99,89.86,46.07,143.25,46.07v-102.97c-28.76,0-55.55-8.55-78.01-23.2Z"/>
</svg>